<?xml version="1.0" standalone="no"?>
<!DOCTYPE svg PUBLIC "-//W3C//DTD SVG 20010904//EN"
 "http://www.w3.org/TR/2001/REC-SVG-20010904/DTD/svg10.dtd">
<svg version="1.0" xmlns="http://www.w3.org/2000/svg"
 width="92.000000pt" height="366.000000pt" viewBox="0 0 92.000000 366.000000"
 preserveAspectRatio="xMidYMid meet">

<g transform="translate(0.000000,366.000000) scale(0.100000,-0.100000)"
fill="#000000" stroke="none">
<path d="M160 1732 c-61 -31 -72 -64 -82 -249 -5 -91 -8 -166 -6 -168 2 -1
175 -5 386 -9 l382 -7 0 111 0 110 -149 0 -148 0 -7 62 c-14 139 -53 168 -226
168 -90 0 -123 -4 -150 -18z m204 -172 c14 -5 26 -16 26 -25 0 -12 -15 -15
-85 -15 -77 0 -85 2 -85 19 0 11 6 22 13 24 22 9 105 7 131 -3z"/>
<path d="M74 1217 c-3 -8 -3 -56 -2 -108 l3 -94 383 -3 382 -2 0 110 0 110
-380 0 c-307 0 -382 -3 -386 -13z"/>
<path d="M680 900 l0 -61 -302 1 -303 2 -3 -106 -3 -106 144 0 c79 0 252 -3
385 -7 l242 -6 0 171 0 172 -80 0 -80 0 0 -60z"/>
<path d="M260 555 c-8 -2 -32 -6 -52 -10 -46 -7 -93 -45 -119 -97 -26 -51 -35
-151 -19 -218 16 -66 76 -133 135 -149 54 -15 443 -14 502 0 154 39 195 302
66 420 -39 37 -83 49 -174 49 l-79 0 0 -104 0 -104 85 -3 c84 -4 120 -18 99
-39 -7 -7 -99 -9 -255 -8 -236 3 -244 4 -244 23 0 19 8 20 103 23 l102 3 0
109 0 110 -67 -1 c-38 -1 -75 -3 -83 -4z"/>
</g>
</svg>
