<?xml version="1.0" standalone="no"?>
<!DOCTYPE svg PUBLIC "-//W3C//DTD SVG 20010904//EN"
 "http://www.w3.org/TR/2001/REC-SVG-20010904/DTD/svg10.dtd">
<svg version="1.0" xmlns="http://www.w3.org/2000/svg"
 width="95.000000pt" height="366.000000pt" viewBox="0 0 95.000000 366.000000"
 preserveAspectRatio="xMidYMid meet">

<g transform="translate(0.000000,366.000000) scale(0.100000,-0.100000)"
fill="#000000" stroke="none">
<path d="M60 3375 l0 -225 80 0 80 0 0 55 0 55 305 0 305 0 0 110 0 110 -302
2 -303 3 -3 58 -3 57 -79 0 -80 0 0 -225z"/>
<path d="M197 3099 c-56 -13 -81 -34 -113 -92 -26 -46 -29 -62 -29 -142 0
-101 19 -151 74 -198 45 -37 111 -47 316 -47 220 0 273 9 326 57 112 101 81
354 -50 406 -21 9 -77 19 -125 23 l-86 7 0 -112 0 -111 83 0 c88 0 114 -9 104
-34 -6 -14 -35 -16 -244 -16 -131 0 -244 4 -252 9 -8 5 -11 16 -8 25 5 13 24
16 107 16 l100 0 0 110 0 110 -82 -1 c-46 -1 -100 -5 -121 -10z"/>
<path d="M685 2564 c-132 -19 -604 -84 -615 -84 -6 0 -10 -60 -10 -150 0 -147
0 -150 22 -155 13 -2 93 -14 178 -25 85 -11 238 -31 340 -45 260 -35 231 -45
228 83 l-3 107 -65 5 c-62 5 -65 6 -68 33 -3 26 -2 27 45 27 95 0 93 -2 93
116 l0 104 -27 -1 c-16 -1 -68 -7 -118 -15z m-135 -235 c0 -21 -3 -22 -82 -16
-46 4 -100 7 -120 7 -72 0 -38 19 40 23 42 1 96 4 120 5 37 2 42 -1 42 -19z"/>
<path d="M58 1898 c-2 -123 -2 -225 -1 -227 2 -2 36 -6 76 -9 l74 -4 7 61 7
61 298 0 c263 0 300 2 305 16 3 9 6 55 6 104 0 82 -1 88 -22 94 -13 3 -150 6
-305 6 l-282 0 -3 58 -3 57 -77 3 -77 3 -3 -223z"/>
<path d="M57 1613 c-4 -3 -7 -44 -7 -90 l0 -83 150 0 c83 0 150 -3 150 -8 0
-4 -56 -22 -126 -40 -192 -50 -175 -37 -172 -139 l3 -88 383 -3 382 -2 0 90 0
90 -157 0 c-86 0 -153 3 -149 7 4 5 74 24 154 43 l147 35 3 98 3 97 -379 0
c-208 0 -382 -3 -385 -7z"/>
<path d="M223 1080 c-46 -5 -72 -14 -99 -35 -103 -79 -111 -291 -15 -378 59
-54 93 -59 355 -55 l233 3 41 29 c62 43 87 101 87 206 0 74 -3 91 -27 131 -30
50 -55 70 -108 87 -42 12 -381 21 -467 12z m436 -219 c14 -4 26 -12 29 -19 3
-9 -54 -12 -247 -12 -241 0 -272 4 -256 30 7 11 434 12 474 1z"/>
<path d="M206 539 c-112 -18 -174 -117 -164 -260 7 -87 38 -152 91 -187 l40
-27 231 -3 c305 -4 349 7 398 106 32 66 32 198 1 258 -44 84 -105 114 -230
114 l-73 0 0 -104 0 -104 85 -3 c84 -4 120 -18 99 -39 -7 -7 -99 -9 -255 -8
-236 3 -244 4 -244 23 0 19 8 20 103 23 l102 3 0 103 c0 99 -1 104 -22 110
-30 8 -101 6 -162 -5z"/>
</g>
</svg>
