<?xml version="1.0" standalone="no"?>
<!DOCTYPE svg PUBLIC "-//W3C//DTD SVG 20010904//EN"
 "http://www.w3.org/TR/2001/REC-SVG-20010904/DTD/svg10.dtd">
<svg version="1.0" xmlns="http://www.w3.org/2000/svg"
 width="96.000000pt" height="366.000000pt" viewBox="0 0 96.000000 366.000000"
 preserveAspectRatio="xMidYMid meet">

<g transform="translate(0.000000,366.000000) scale(0.100000,-0.100000)"
fill="#000000" stroke="none">
<path d="M102 2308 l3 -103 45 -6 c25 -4 111 -13 192 -20 81 -7 145 -15 143
-19 -2 -4 -69 -10 -147 -13 -79 -4 -165 -9 -191 -13 l-48 -7 3 -111 3 -111
140 -17 c77 -9 162 -17 188 -17 27 -1 46 -5 43 -9 -3 -5 -79 -12 -168 -16 -90
-4 -173 -9 -185 -12 -22 -6 -23 -11 -23 -108 l0 -102 383 42 c210 23 383 43
385 43 1 1 2 59 2 129 l0 129 -127 17 c-71 9 -147 20 -171 23 -24 3 -42 7 -40
8 2 2 64 10 138 19 74 9 150 19 168 22 l33 6 -3 131 -3 131 -350 43 c-192 23
-365 42 -383 43 l-33 0 3 -102z"/>
<path d="M480 1579 c-190 -26 -353 -49 -363 -49 -16 0 -17 -12 -15 -152 l3
-153 376 -50 377 -51 7 104 c4 57 4 106 1 110 -4 3 -36 8 -71 10 -64 4 -65 5
-65 33 0 28 1 28 68 31 l67 3 3 108 c3 106 2 107 -20 106 -13 0 -178 -23 -368
-50z m108 -201 c3 -15 -4 -18 -41 -18 -71 0 -197 12 -197 19 0 4 37 8 82 10
46 1 85 5 88 7 12 12 65 -2 68 -18z"/>
<path d="M221 1091 c-47 -12 -83 -41 -104 -83 -14 -28 -19 -72 -24 -202 l-6
-166 235 0 c129 0 303 -3 386 -7 l152 -6 0 111 0 112 -163 0 c-90 0 -167 3
-170 7 -4 3 -2 12 4 20 9 10 50 13 170 13 l159 0 0 100 0 100 -92 3 c-223 6
-267 -4 -289 -61 l-11 -27 -12 30 c-7 17 -26 36 -42 44 -36 16 -148 23 -193
12z m162 -208 c4 -2 7 -11 7 -19 0 -11 -16 -14 -74 -14 -41 0 -77 4 -80 8 -7
12 7 29 29 35 21 6 104 -1 118 -10z"/>
<path d="M180 542 c-23 -12 -43 -35 -59 -67 -23 -44 -25 -63 -29 -217 l-5
-168 205 0 c113 0 287 -3 387 -7 l183 -6 -4 194 c-5 295 11 283 -368 287 -252
2 -278 1 -310 -16z m528 -214 c6 -6 12 -14 12 -19 0 -14 -477 -11 -486 3 -17
28 24 33 242 30 131 -2 224 -8 232 -14z"/>
</g>
</svg>
