<?xml version="1.0" standalone="no"?>
<!DOCTYPE svg PUBLIC "-//W3C//DTD SVG 20010904//EN"
 "http://www.w3.org/TR/2001/REC-SVG-20010904/DTD/svg10.dtd">
<svg version="1.0" xmlns="http://www.w3.org/2000/svg"
 width="94.000000pt" height="556.000000pt" viewBox="0 0 94.000000 556.000000"
 preserveAspectRatio="xMidYMid meet">

<g transform="translate(0.000000,556.000000) scale(0.100000,-0.100000)"
fill="#000000" stroke="none">
<path d="M100 3225 l0 -105 385 0 385 0 0 105 0 105 -385 0 -385 0 0 -105z"/>
<path d="M650 3018 c-181 -52 -209 -58 -240 -49 -19 6 -97 31 -173 55 l-137
44 0 -102 0 -101 128 -31 127 -32 -127 -1 -126 -1 -7 -83 c-4 -45 -5 -94 -3
-107 l3 -25 383 -3 382 -2 0 110 0 110 -142 1 -143 1 137 27 c76 15 141 30
144 34 10 10 17 204 8 209 -5 3 -101 -21 -214 -54z"/>
<path d="M557 2506 c-56 -15 -94 -48 -149 -131 -67 -99 -86 -115 -134 -115
-27 0 -44 5 -47 14 -8 21 2 26 55 26 l48 0 0 101 0 102 -72 -5 c-40 -3 -83
-11 -96 -19 -12 -8 -35 -38 -49 -68 -23 -45 -27 -68 -27 -136 0 -145 54 -213
177 -222 72 -6 133 8 172 39 15 11 58 63 96 114 72 98 87 108 155 102 31 -2
39 -7 39 -23 0 -18 -8 -21 -70 -25 l-70 -5 -3 -99 -3 -98 91 4 c108 5 132 19
173 98 46 92 36 231 -24 303 -45 54 -153 72 -262 43z"/>
<path d="M210 1979 c-19 -6 -46 -20 -58 -32 -46 -43 -53 -69 -59 -247 l-6
-170 386 0 387 0 0 110 0 110 -171 0 c-130 0 -170 3 -167 12 7 21 46 26 196
27 l142 1 0 100 0 100 -152 0 c-169 0 -189 -6 -224 -58 l-22 -32 -6 25 c-4 14
-17 32 -31 41 -30 20 -165 28 -215 13z m154 -199 c49 -18 28 -30 -54 -30 -44
0 -80 4 -80 10 0 27 84 40 134 20z"/>
<path d="M265 1451 c-96 -14 -144 -55 -171 -149 -38 -131 22 -281 124 -310 36
-9 479 -9 515 1 47 13 104 73 123 129 31 93 5 228 -53 280 -47 42 -90 50 -293
54 -107 1 -217 -1 -245 -5z m454 -220 c7 -5 10 -14 7 -20 -9 -14 -492 -16
-501 -1 -3 6 -3 15 0 20 8 13 474 13 494 1z"/>
<path d="M700 890 l0 -60 -305 0 -305 0 0 -105 0 -105 385 0 385 0 0 165 0
165 -80 0 -80 0 0 -60z"/>
<path d="M641 519 l-203 -59 -152 49 c-83 26 -161 51 -174 55 l-23 8 3 -103 3
-102 125 -31 125 -31 -127 -3 -128 -3 0 -109 0 -110 385 0 385 0 0 110 0 109
-142 3 -143 3 90 18 c50 10 114 22 143 28 l52 10 0 110 c0 60 -3 109 -7 108
-5 0 -100 -27 -212 -60z"/>
</g>
</svg>
