<?xml version="1.0" standalone="no"?>
<!DOCTYPE svg PUBLIC "-//W3C//DTD SVG 20010904//EN"
 "http://www.w3.org/TR/2001/REC-SVG-20010904/DTD/svg10.dtd">
<svg version="1.0" xmlns="http://www.w3.org/2000/svg"
 width="88.000000pt" height="382.000000pt" viewBox="0 0 88.000000 382.000000"
 preserveAspectRatio="xMidYMid meet">

<g transform="translate(0.000000,382.000000) scale(0.100000,-0.100000)"
fill="#000000" stroke="none">
<path d="M100 2861 l0 -79 113 -27 c303 -71 368 -87 363 -93 -3 -3 -110 -33
-238 -67 l-233 -61 -3 -64 c-2 -35 1 -67 5 -71 4 -4 105 -33 223 -64 118 -30
224 -59 235 -64 23 -10 39 -5 -260 -78 l-200 -48 -3 -77 c-2 -59 0 -78 10 -78
7 0 164 44 348 98 l335 97 3 72 3 72 -68 20 c-37 11 -133 38 -213 61 -175 49
-174 49 -167 56 4 5 434 134 445 134 1 0 2 33 0 73 l-3 72 -340 97 c-187 54
-343 97 -347 98 -5 0 -8 -36 -8 -79z"/>
<path d="M440 1891 l-335 -118 -3 -95 -3 -94 288 -99 c158 -54 316 -108 351
-121 l63 -23 -3 82 -3 81 -77 24 -78 24 0 128 0 127 80 24 80 24 0 78 c0 55
-4 77 -12 76 -7 0 -164 -53 -348 -118z m90 -210 c0 -44 -3 -82 -7 -84 -11 -5
-253 72 -253 81 0 8 215 79 243 81 15 1 17 -9 17 -78z"/>
<path d="M670 1229 c-69 -38 -129 -69 -135 -69 -5 1 -19 15 -30 33 -70 110
-278 105 -357 -9 -38 -53 -49 -126 -46 -290 l3 -139 348 -3 347 -2 0 75 0 75
-126 0 -125 0 3 53 3 52 115 62 c63 35 119 64 123 66 4 1 7 39 5 83 l-3 82
-125 -69z m-285 -115 c27 -11 46 -63 52 -140 l6 -74 -113 0 -113 0 6 78 c5 83
18 114 52 131 23 11 86 14 110 5z"/>
<path d="M339 627 c-105 -30 -173 -90 -210 -187 -16 -42 -19 -77 -19 -220 l0
-170 346 0 346 0 -4 178 c-3 166 -5 180 -29 232 -55 116 -146 171 -293 176
-55 3 -109 -1 -137 -9z m237 -156 c22 -10 50 -31 62 -45 26 -33 45 -116 40
-176 l-3 -45 -222 -3 -223 -2 0 68 c0 114 28 168 105 203 55 26 185 26 241 0z"/>
</g>
</svg>
