<?xml version="1.0" standalone="no"?>
<!DOCTYPE svg PUBLIC "-//W3C//DTD SVG 20010904//EN"
 "http://www.w3.org/TR/2001/REC-SVG-20010904/DTD/svg10.dtd">
<svg version="1.0" xmlns="http://www.w3.org/2000/svg"
 width="94.000000pt" height="366.000000pt" viewBox="0 0 94.000000 366.000000"
 preserveAspectRatio="xMidYMid meet">

<g transform="translate(0.000000,366.000000) scale(0.100000,-0.100000)"
fill="#000000" stroke="none">
<path d="M219 2691 c-94 -30 -111 -73 -117 -298 l-5 -173 388 0 387 0 -4 188
c-3 167 -5 191 -24 222 -36 62 -50 65 -339 67 -143 1 -272 -2 -286 -6z m499
-223 c7 -7 12 -16 12 -20 0 -4 -110 -8 -245 -8 -197 0 -245 3 -245 13 0 8 3
17 7 20 12 13 458 8 471 -5z"/>
<path d="M100 2050 l0 -89 158 -3 157 -3 -115 -32 c-63 -17 -134 -37 -157 -43
l-43 -11 0 -95 0 -94 383 2 382 3 0 90 0 90 -160 5 -160 5 163 39 162 38 0 94
0 94 -385 0 -385 0 0 -90z"/>
<path d="M100 1501 l0 -111 309 0 c295 0 340 -4 316 -28 -4 -4 -145 -5 -315
-3 l-308 3 -7 -96 c-4 -52 -5 -102 -1 -111 5 -13 47 -15 316 -15 344 0 353 1
407 63 75 85 75 265 0 345 -52 56 -57 57 -399 60 l-318 3 0 -110z"/>
<path d="M270 1060 c-105 -13 -158 -63 -181 -169 -29 -136 33 -262 142 -291
26 -7 125 -10 268 -8 220 3 227 4 269 28 61 34 93 93 100 178 8 118 -30 201
-108 239 -40 19 -67 22 -240 26 -107 3 -220 1 -250 -3z m438 -216 c12 -4 22
-13 22 -20 0 -12 -44 -14 -249 -14 -173 0 -252 3 -257 11 -3 6 0 15 7 20 16
10 441 12 477 3z"/>
<path d="M537 516 c-52 -19 -76 -44 -148 -148 -38 -56 -68 -90 -83 -94 -39
-10 -81 -1 -84 19 -3 14 5 17 52 17 l56 0 0 106 0 107 -72 -7 c-85 -7 -112
-24 -148 -87 -21 -38 -25 -57 -25 -134 0 -77 4 -98 25 -139 35 -67 72 -86 174
-86 118 0 145 16 238 144 69 94 80 105 115 111 44 7 93 -8 93 -29 0 -20 -22
-26 -91 -26 l-59 0 0 -100 0 -100 53 0 c111 1 165 27 207 101 21 38 25 56 25
134 0 78 -4 96 -25 134 -41 72 -67 86 -173 89 -60 1 -105 -3 -130 -12z"/>
</g>
</svg>
