<?xml version="1.0" standalone="no"?>
<!DOCTYPE svg PUBLIC "-//W3C//DTD SVG 20010904//EN"
 "http://www.w3.org/TR/2001/REC-SVG-20010904/DTD/svg10.dtd">
<svg version="1.0" xmlns="http://www.w3.org/2000/svg"
 width="92.000000pt" height="366.000000pt" viewBox="0 0 92.000000 366.000000"
 preserveAspectRatio="xMidYMid meet">

<g transform="translate(0.000000,366.000000) scale(0.100000,-0.100000)"
fill="#000000" stroke="none">
<path d="M688 2418 l-3 -73 -77 -3 -78 -3 0 66 0 65 -75 0 -75 0 0 -60 0 -60
-70 0 -69 0 -3 63 -3 62 -78 3 -77 3 0 -176 0 -175 385 0 385 0 0 180 0 180
-80 0 -79 0 -3 -72z"/>
<path d="M190 2038 c-49 -14 -86 -52 -99 -103 -6 -24 -11 -112 -11 -194 l0
-151 379 0 379 0 7 73 c4 39 5 88 3 107 l-3 35 -167 3 c-134 2 -168 5 -168 16
0 21 34 26 193 26 l147 0 0 100 0 100 -157 0 c-138 0 -162 -2 -190 -19 -17
-11 -34 -29 -38 -40 -8 -27 -18 -27 -30 2 -22 50 -146 73 -245 45z m174 -204
c9 -8 16 -17 16 -20 0 -2 -36 -4 -80 -4 -62 0 -80 3 -80 14 0 19 15 24 77 25
34 1 57 -4 67 -15z"/>
<path d="M221 1509 c-98 -19 -154 -102 -155 -228 0 -136 54 -211 169 -232 35
-6 144 -9 264 -7 228 4 241 7 299 72 40 46 55 104 50 192 -8 127 -67 190 -190
205 -93 10 -379 10 -437 -2z m478 -218 c7 -5 10 -14 7 -20 -9 -14 -492 -16
-501 -1 -3 6 -3 15 0 20 8 13 474 13 494 1z"/>
<path d="M70 775 l0 -225 80 0 80 0 0 60 0 60 305 0 305 0 0 105 0 105 -237 0
c-131 0 -268 3 -305 7 l-68 6 0 53 0 54 -80 0 -80 0 0 -225z"/>
<path d="M517 506 c-52 -19 -76 -44 -148 -148 -38 -56 -68 -90 -83 -94 -39
-10 -81 -1 -84 19 -3 14 5 17 52 17 l56 0 0 106 0 107 -72 -7 c-85 -7 -112
-23 -148 -87 -22 -38 -25 -56 -25 -139 0 -83 3 -101 25 -140 34 -61 74 -80
172 -80 123 0 141 11 249 158 l69 92 60 0 c46 0 62 -4 67 -16 9 -24 -15 -34
-84 -34 l-63 0 0 -100 0 -100 63 0 c154 2 221 70 222 230 0 71 -4 93 -25 134
-38 77 -64 91 -173 94 -60 1 -105 -3 -130 -12z"/>
</g>
</svg>
